<svg width="300" height="76" viewBox="0 0 300 76" fill="none" xmlns="http://www.w3.org/2000/svg">
<g clip-path="url(#clip0_316_1154)">
<path d="M109.17 76C106.174 76 103.621 75.2898 101.513 73.8693C99.4043 72.4338 97.7882 70.4391 96.6646 67.8853C95.5549 65.3316 95 62.3698 95 59C95 55.6302 95.5549 52.6684 96.6646 50.1147C97.7882 47.5609 99.4043 45.5738 101.513 44.1533C103.621 42.7178 106.174 42 109.17 42C112.624 42 115.482 42.952 117.743 44.856C120.018 46.76 121.599 49.3213 122.487 52.54L118.076 53.832C117.493 51.5502 116.453 49.7596 114.955 48.46C113.47 47.1604 111.542 46.5107 109.17 46.5107C107.048 46.5107 105.279 47.032 103.864 48.0747C102.449 49.1173 101.381 50.5756 100.66 52.4493C99.9522 54.3231 99.5985 56.5067 99.5985 59C99.5846 61.4933 99.9314 63.6769 100.639 65.5507C101.36 67.4244 102.428 68.8827 103.843 69.9253C105.272 70.968 107.048 71.4893 109.17 71.4893C111.542 71.4893 113.47 70.8396 114.955 69.54C116.453 68.2253 117.493 66.4347 118.076 64.168L122.487 65.46C121.599 68.6787 120.018 71.24 117.743 73.144C115.482 75.048 112.624 76 109.17 76Z" fill="#303030"/>
<path d="M139.569 76C136.572 76 134.02 75.2898 131.911 73.8693C129.803 72.4338 128.187 70.4391 127.063 67.8853C125.954 65.3316 125.399 62.3698 125.399 59C125.399 55.6302 125.954 52.6684 127.063 50.1147C128.187 47.5609 129.803 45.5738 131.911 44.1533C134.02 42.7178 136.572 42 139.569 42C142.551 42 145.097 42.7178 147.205 44.1533C149.327 45.5738 150.944 47.5609 152.053 50.1147C153.163 52.6684 153.718 55.6302 153.718 59C153.718 62.3698 153.163 65.3316 152.053 67.8853C150.944 70.4391 149.327 72.4338 147.205 73.8693C145.097 75.2898 142.551 76 139.569 76ZM139.569 71.4893C141.691 71.5196 143.453 71.0133 144.854 69.9707C146.269 68.9129 147.33 67.4471 148.037 65.5733C148.745 63.6844 149.099 61.4933 149.099 59C149.099 56.5067 148.745 54.3307 148.037 52.472C147.33 50.5982 146.269 49.14 144.854 48.0973C143.453 47.0547 141.691 46.5258 139.569 46.5107C137.446 46.4804 135.678 46.9867 134.263 48.0293C132.862 49.072 131.807 50.5378 131.1 52.4267C130.393 54.3156 130.032 56.5067 130.018 59C130.004 61.4933 130.351 63.6769 131.058 65.5507C131.766 67.4093 132.827 68.86 134.242 69.9027C135.671 70.9453 137.446 71.4742 139.569 71.4893Z" fill="#303030"/>
<path d="M187.251 75.3201V42.6801H205V47.4174H191.6V56.6201H202.503V61.3801H191.6V75.3201H187.251Z" fill="#303030"/>
<path d="M167.034 50.7104H161.981V56.2152H167.034V50.7104Z" fill="#303030"/>
<path d="M172.087 56.2153H167.034V61.7201H172.087V56.2153Z" fill="#303030"/>
<path d="M177.141 61.72H172.088V67.2247H177.141V61.72Z" fill="#303030"/>
<path d="M182.194 42.6152H177.141V75.32H182.194V42.6152Z" fill="#303030"/>
<path d="M161.981 42.6152H156.928V75.32H161.981V42.6152Z" fill="#303030"/>
<path d="M30.0546 33.9999V0H52.1788V4.65137H35.0806V14.1902H49.293V18.8416H35.0806V29.3485H52.1788V33.9999H30.0546Z" fill="#303030"/>
<path d="M57.9541 33.9999V0H71.9501C72.2868 0 72.7036 0.0157405 73.2006 0.0472214C73.6976 0.0629628 74.1705 0.110185 74.6194 0.188889C76.5433 0.48796 78.1465 1.13333 79.4291 2.12499C80.7277 3.11665 81.6976 4.36804 82.3389 5.87914C82.9802 7.39025 83.3008 9.05876 83.3008 10.8847C83.3008 13.5921 82.5954 15.9296 81.1846 17.8972C79.7737 19.849 77.6575 21.0689 74.8359 21.5569L72.7918 21.793H62.9802V33.9999H57.9541ZM78.2026 33.9999L71.3729 20.1638L76.4471 18.8888L83.9501 33.9999H78.2026ZM62.9802 17.118H71.7577C72.0784 17.118 72.4311 17.1022 72.8158 17.0708C73.2166 17.0393 73.5934 16.9842 73.9461 16.9055C74.9721 16.6694 75.7978 16.2365 76.423 15.6069C77.0483 14.9615 77.4972 14.2217 77.7697 13.3874C78.0423 12.5532 78.1786 11.7189 78.1786 10.8847C78.1786 10.0504 78.0423 9.22404 77.7697 8.40552C77.4972 7.57127 77.0483 6.83932 76.423 6.2097C75.7978 5.56433 74.9721 5.12359 73.9461 4.88748C73.5934 4.79304 73.2166 4.73007 72.8158 4.69859C72.4311 4.66711 72.0784 4.65137 71.7577 4.65137H62.9802V17.118Z" fill="#303030"/>
<path d="M89.2354 33.9999V0H111.36V4.65137H94.2615V14.1902H108.474V18.8416H94.2615V29.3485H111.36V33.9999H89.2354Z" fill="#303030"/>
<path d="M150.342 33.9999V0H172.466V4.65137H155.368V14.1902H169.58V18.8416H155.368V29.3485H172.466V33.9999H150.342Z" fill="#303030"/>
<path d="M178.722 33.9999V0H183.749V29.3485H199.428V33.9999H178.722Z" fill="#303030"/>
<path d="M201.106 33.9999L212.361 0H219.599L230.854 33.9999H225.635L215.27 2.97499H216.569L206.324 33.9999H201.106ZM206.95 26.3263V21.6985H225.034V26.3263H206.95Z" fill="#303030"/>
<path d="M235.168 33.9999V0H240.266L257.316 25.2638V0H262.414V33.9999H257.316L240.266 8.71246V33.9999H235.168Z" fill="#303030"/>
<path d="M5.11022 0.0588379H0V33.9996H5.11022V0.0588379Z" fill="#303030"/>
<path d="M19.8399 0.0588379H5.11035V5.07618H19.8399V0.0588379Z" fill="#303030"/>
<path d="M24.9491 4.78125H19.8389V9.79859H24.9491V4.78125Z" fill="#303030"/>
<path d="M24.9491 9.79858H19.8389V14.8159H24.9491V9.79858Z" fill="#303030"/>
<path d="M19.8399 14.8159H5.11035V19.8333H19.8399V14.8159Z" fill="#303030"/>
<path d="M122.343 0.059082H117.233V33.9999H122.343V0.059082Z" fill="#303030"/>
<path d="M134.368 0.059082H122.344V5.07642H134.368V0.059082Z" fill="#303030"/>
<path d="M134.368 28.9824H122.344V33.9998H134.368V28.9824Z" fill="#303030"/>
<path d="M139.478 5.07666H134.368V10.094H139.478V5.07666Z" fill="#303030"/>
<path d="M144.588 10.094H139.478V23.9655H144.588V10.094Z" fill="#303030"/>
<path d="M139.478 23.9653H134.368V28.9827H139.478V23.9653Z" fill="#303030"/>
<path d="M289.78 0.0588379H277.756V5.07618H289.78V0.0588379Z" fill="#303030"/>
<path d="M289.78 28.9824H277.756V33.9998H289.78V28.9824Z" fill="#303030"/>
<path d="M294.889 5.07642H289.779V10.0938H294.889V5.07642Z" fill="#303030"/>
<path d="M277.755 5.07642H272.645V10.0938H277.755V5.07642Z" fill="#303030"/>
<path d="M300.001 10.0938H294.891V23.9653H300.001V10.0938Z" fill="#303030"/>
<path d="M272.645 10.0938H267.535V23.9653H272.645V10.0938Z" fill="#303030"/>
<path d="M294.889 23.9651H289.779V28.9824H294.889V23.9651Z" fill="#303030"/>
<path d="M277.755 23.9651H272.645V28.9824H277.755V23.9651Z" fill="#303030"/>
</g>
<defs>
<clipPath id="clip0_316_1154">
<rect width="300" height="76" fill="white"/>
</clipPath>
</defs>
</svg>
