<svg width="992" height="253" viewBox="0 0 992 253" fill="none" xmlns="http://www.w3.org/2000/svg">
<path d="M99.3799 115V0H172.537V15.7326H115.999V47.9965H162.995V63.7292H115.999V99.2673H172.537V115H99.3799Z" fill="#303030"/>
<path d="M191.634 115V0H237.914C239.028 0 240.406 0.0532401 242.049 0.15972C243.693 0.212963 245.257 0.372687 246.741 0.63889C253.103 1.65046 258.404 3.83333 262.645 7.1875C266.939 10.5417 270.146 14.7743 272.267 19.8854C274.387 24.9965 275.447 30.64 275.447 36.816C275.447 45.9734 273.115 53.8796 268.45 60.5347C263.785 67.1366 256.787 71.2627 247.457 72.9132L240.698 73.7118H208.254V115H191.634ZM258.589 115L236.006 68.2014L252.785 63.8889L277.594 115H258.589ZM208.254 57.8993H237.278C238.339 57.8993 239.505 57.8461 240.777 57.7396C242.102 57.6331 243.348 57.4468 244.515 57.1806C247.907 56.3819 250.638 54.9178 252.705 52.7882C254.773 50.6053 256.257 48.103 257.158 45.2812C258.059 42.4595 258.51 39.6377 258.51 36.816C258.51 33.9942 258.059 31.1991 257.158 28.4305C256.257 25.6088 254.773 23.1331 252.705 21.0035C250.638 18.8206 247.907 17.3299 244.515 16.5312C243.348 16.2118 242.102 15.9988 240.777 15.8924C239.505 15.7859 238.339 15.7326 237.278 15.7326H208.254V57.8993Z" fill="#303030"/>
<path d="M295.071 115V0H368.229V15.7326H311.691V47.9965H358.686V63.7292H311.691V99.2673H368.229V115H295.071Z" fill="#303030"/>
<path d="M497.13 115V0H570.288V15.7326H513.75V47.9965H560.746V63.7292H513.75V99.2673H570.288V115H497.13Z" fill="#303030"/>
<path d="M590.975 115V0H607.595V99.2673H659.441V115H590.975Z" fill="#303030"/>
<path d="M664.99 115L702.205 0H726.14L763.355 115H746.099L711.827 10.0625H716.121L682.246 115H664.99ZM684.313 89.0451V73.3924H744.112V89.0451H684.313Z" fill="#303030"/>
<path d="M777.621 115V0H794.479L850.858 85.4514V0H867.716V115H850.858L794.479 29.4687V115H777.621Z" fill="#303030"/>
<rect y="0.199463" width="16.8978" height="114.8" fill="#303030"/>
<rect x="16.8975" y="0.199707" width="48.7054" height="16.9705" fill="#303030"/>
<rect x="65.6035" y="16.1716" width="16.8978" height="16.9705" fill="#303030"/>
<rect x="65.6035" y="33.1423" width="16.8978" height="16.9705" fill="#303030"/>
<rect x="16.8975" y="50.113" width="48.7054" height="16.9705" fill="#303030"/>
<rect x="387.655" y="0.199463" width="16.8978" height="114.8" fill="#303030"/>
<rect x="404.553" y="0.199707" width="39.7595" height="16.9705" fill="#303030"/>
<rect x="404.553" y="98.0295" width="39.7595" height="16.9705" fill="#303030"/>
<rect x="444.312" y="17.1704" width="16.8978" height="16.9705" fill="#303030"/>
<rect x="461.21" y="34.1405" width="16.8978" height="46.9184" fill="#303030"/>
<rect x="444.312" y="81.0588" width="16.8978" height="16.9705" fill="#303030"/>
<rect x="918.445" y="0.199707" width="39.7595" height="16.9705" fill="#303030"/>
<rect x="918.445" y="98.0295" width="39.7595" height="16.9705" fill="#303030"/>
<rect x="958.204" y="17.1704" width="16.8978" height="16.9705" fill="#303030"/>
<rect x="901.547" y="17.1704" width="16.8978" height="16.9705" fill="#303030"/>
<rect x="975.103" y="34.1405" width="16.8978" height="46.9184" fill="#303030"/>
<rect x="884.649" y="34.1405" width="16.8978" height="46.9184" fill="#303030"/>
<rect x="958.204" y="81.0588" width="16.8978" height="16.9705" fill="#303030"/>
<rect x="901.547" y="81.0588" width="16.8978" height="16.9705" fill="#303030"/>
<path d="M47.4051 252.17C37.3811 252.17 28.8422 249.768 21.7883 244.964C14.7343 240.108 9.32788 233.361 5.56889 224.724C1.85629 216.086 0 206.068 0 194.67C0 183.273 1.85629 173.255 5.56889 164.617C9.32788 155.979 14.7343 149.258 21.7883 144.454C28.8422 139.598 37.3811 137.17 47.4051 137.17C58.9606 137.17 68.5205 140.39 76.0849 146.83C83.6957 153.27 88.9862 161.934 91.9562 172.82L77.1987 177.19C75.2496 169.473 71.769 163.416 66.757 159.02C61.7914 154.625 55.3408 152.427 47.4051 152.427C40.3048 152.427 34.3879 154.19 29.6543 157.717C24.9208 161.244 21.3474 166.176 18.9342 172.514C16.5674 178.851 15.384 186.237 15.384 194.67C15.3376 203.104 16.4978 210.489 18.8646 216.827C21.2778 223.165 24.8512 228.097 29.5847 231.624C34.3647 235.15 40.3048 236.914 47.4051 236.914C55.3408 236.914 61.7914 234.716 66.757 230.32C71.769 225.874 75.2496 219.817 77.1987 212.15L91.9562 216.52C88.9862 227.407 83.6957 236.07 76.0849 242.51C68.5205 248.95 58.9606 252.17 47.4051 252.17Z" fill="#303030"/>
<path d="M149.103 252.17C139.079 252.17 130.54 249.768 123.486 244.964C116.432 240.108 111.025 233.361 107.266 224.724C103.554 216.086 101.697 206.068 101.697 194.67C101.697 183.273 103.554 173.255 107.266 164.617C111.025 155.979 116.432 149.258 123.486 144.454C130.54 139.598 139.079 137.17 149.103 137.17C159.08 137.17 167.596 139.598 174.65 144.454C181.75 149.258 187.157 155.979 190.869 164.617C194.582 173.255 196.438 183.273 196.438 194.67C196.438 206.068 194.582 216.086 190.869 224.724C187.157 233.361 181.75 240.108 174.65 244.964C167.596 249.768 159.08 252.17 149.103 252.17ZM149.103 236.914C156.203 237.016 162.097 235.304 166.784 231.777C171.517 228.199 175.067 223.241 177.434 216.904C179.801 210.515 180.984 203.104 180.984 194.67C180.984 186.237 179.801 178.877 177.434 172.59C175.067 166.253 171.517 161.32 166.784 157.794C162.097 154.267 156.203 152.478 149.103 152.427C142.002 152.325 136.085 154.037 131.352 157.564C126.665 161.09 123.138 166.048 120.771 172.437C118.404 178.826 117.197 186.237 117.151 194.67C117.105 203.104 118.265 210.489 120.632 216.827C122.998 223.114 126.549 228.02 131.282 231.547C136.062 235.074 142.002 236.863 149.103 236.914Z" fill="#303030"/>
<path d="M308.622 249.87V139.47H368V155.494H323.17V186.62H359.647V202.72H323.17V249.87H308.622Z" fill="#303030"/>
<rect x="224.082" y="166.632" width="16.9055" height="18.619" fill="#303030"/>
<rect x="240.989" y="185.251" width="16.9055" height="18.619" fill="#303030"/>
<rect x="257.894" y="203.87" width="16.9055" height="18.619" fill="#303030"/>
<rect x="274.799" y="139.251" width="16.9055" height="110.619" fill="#303030"/>
<rect x="207.177" y="139.251" width="16.9055" height="110.619" fill="#303030"/>
</svg>
