<svg width="998" height="282" viewBox="0 0 998 282" fill="none" xmlns="http://www.w3.org/2000/svg">
<path d="M99.9814 125.698V0H173.581V17.1962H116.701V52.4614H163.981V69.6575H116.701V108.502H173.581V125.698H99.9814Z" fill="#D4D4D4"/>
<path d="M192.794 125.698V0H239.354C240.474 0 241.861 0.0581927 243.514 0.174578C245.167 0.232774 246.741 0.407356 248.234 0.698323C254.634 1.80399 259.967 4.18993 264.234 7.85612C268.554 11.5223 271.781 16.1487 273.914 21.7352C276.047 27.3218 277.114 33.4903 277.114 40.2408C277.114 50.25 274.767 58.8918 270.074 66.1659C265.381 73.3819 258.341 77.8919 248.954 79.6959L242.154 80.5688H209.514V125.698H192.794ZM260.154 125.698L237.434 74.5458L254.314 69.8321L279.274 125.698H260.154ZM209.514 63.2854H238.714C239.781 63.2854 240.954 63.2272 242.234 63.1108C243.567 62.9944 244.821 62.7907 245.994 62.4998C249.407 61.6269 252.154 60.0265 254.234 57.6988C256.314 55.3129 257.807 52.5778 258.714 49.4935C259.621 46.4093 260.074 43.325 260.074 40.2408C260.074 37.1565 259.621 34.1014 258.714 31.0753C257.807 27.991 256.314 25.285 254.234 22.9573C252.154 20.5714 249.407 18.942 245.994 18.0691C244.821 17.7199 243.567 17.4871 242.234 17.3707C240.954 17.2544 239.781 17.1962 238.714 17.1962H209.514V63.2854Z" fill="#D4D4D4"/>
<path d="M296.856 125.698V0H370.456V17.1962H313.576V52.4614H360.856V69.6575H313.576V108.502H370.456V125.698H296.856Z" fill="#D4D4D4"/>
<path d="M500.138 125.698V0H573.738V17.1962H516.858V52.4614H564.138V69.6575H516.858V108.502H573.738V125.698H500.138Z" fill="#D4D4D4"/>
<path d="M594.55 125.698V0H611.27V108.502H663.43V125.698H594.55Z" fill="#D4D4D4"/>
<path d="M669.013 125.698L706.453 0H730.533L767.973 125.698H750.613L716.133 10.9986H720.453L686.373 125.698H669.013ZM688.453 97.3285V80.2197H748.613V97.3285H688.453Z" fill="#D4D4D4"/>
<path d="M782.325 125.698V0H799.285L856.005 93.4005V0H872.965V125.698H856.005L799.285 32.2101V125.698H782.325Z" fill="#D4D4D4"/>
<rect y="0.218018" width="17" height="125.48" fill="#D4D4D4"/>
<rect x="17" y="0.218018" width="49" height="18.5492" fill="#D4D4D4"/>
<rect x="66" y="17.676" width="17" height="18.5492" fill="#D4D4D4"/>
<rect x="66" y="36.2251" width="17" height="18.5492" fill="#D4D4D4"/>
<rect x="17" y="54.7744" width="49" height="18.5492" fill="#D4D4D4"/>
<rect x="390" y="0.218018" width="17" height="125.48" fill="#D4D4D4"/>
<rect x="407" y="0.218018" width="40" height="18.5492" fill="#D4D4D4"/>
<rect x="407" y="107.148" width="40" height="18.5492" fill="#D4D4D4"/>
<rect x="447" y="18.7671" width="17" height="18.5492" fill="#D4D4D4"/>
<rect x="464" y="37.3162" width="17" height="51.283" fill="#D4D4D4"/>
<rect x="447" y="88.5994" width="17" height="18.5492" fill="#D4D4D4"/>
<rect x="924" y="0.218018" width="40" height="18.5492" fill="#D4D4D4"/>
<rect x="924" y="107.148" width="40" height="18.5492" fill="#D4D4D4"/>
<rect x="964" y="18.7671" width="17" height="18.5492" fill="#D4D4D4"/>
<rect x="907" y="18.7671" width="17" height="18.5492" fill="#D4D4D4"/>
<rect x="981" y="37.3162" width="17" height="51.283" fill="#D4D4D4"/>
<rect x="890" y="37.3162" width="17" height="51.283" fill="#D4D4D4"/>
<rect x="964" y="88.5994" width="17" height="18.5492" fill="#D4D4D4"/>
<rect x="907" y="88.5994" width="17" height="18.5492" fill="#D4D4D4"/>
<path d="M47.6628 282C37.5843 282 28.9989 279.374 21.9067 274.123C14.8144 268.816 9.37858 261.442 5.59915 252C1.86638 242.559 0 231.609 0 219.151C0 206.693 1.86638 195.743 5.59915 186.302C9.37858 176.861 14.8144 169.514 21.9067 164.263C28.9989 158.956 37.5843 156.302 47.6628 156.302C59.281 156.302 68.8929 159.822 76.4984 166.861C84.1506 173.9 89.4698 183.369 92.456 195.269L77.6182 200.045C75.6585 191.609 72.1591 184.989 67.1198 180.185C62.1273 175.38 55.6416 172.978 47.6628 172.978C40.5239 172.978 34.5748 174.906 29.8155 178.76C25.0562 182.615 21.4634 188.006 19.0371 194.933C16.6575 201.861 15.4677 209.933 15.4677 219.151C15.421 228.369 16.5875 236.442 18.9671 243.369C21.3934 250.296 24.9862 255.687 29.7455 259.542C34.5514 263.397 40.5239 265.324 47.6628 265.324C55.6416 265.324 62.1273 262.922 67.1198 258.117C72.1591 253.257 75.6585 246.637 77.6182 238.257L92.456 243.034C89.4698 254.933 84.1506 264.402 76.4984 271.441C68.8929 278.481 59.281 282 47.6628 282Z" fill="#D4D4D4"/>
<path d="M149.913 282C139.834 282 131.249 279.374 124.157 274.123C117.065 268.816 111.629 261.442 107.849 252C104.117 242.559 102.25 231.609 102.25 219.151C102.25 206.693 104.117 195.743 107.849 186.302C111.629 176.861 117.065 169.514 124.157 164.263C131.249 158.956 139.834 156.302 149.913 156.302C159.945 156.302 168.507 158.956 175.599 164.263C182.738 169.514 188.174 176.861 191.907 186.302C195.639 195.743 197.506 206.693 197.506 219.151C197.506 231.609 195.639 242.559 191.907 252C188.174 261.442 182.738 268.816 175.599 274.123C168.507 279.374 159.945 282 149.913 282ZM149.913 265.324C157.052 265.436 162.978 263.564 167.69 259.71C172.449 255.799 176.019 250.38 178.399 243.453C180.778 236.47 181.968 228.369 181.968 219.151C181.968 209.933 180.778 201.889 178.399 195.017C176.019 188.09 172.449 182.699 167.69 178.844C162.978 174.989 157.052 173.034 149.913 172.978C142.774 172.866 136.825 174.738 132.066 178.593C127.353 182.447 123.807 187.866 121.427 194.85C119.048 201.833 117.834 209.933 117.788 219.151C117.741 228.369 118.908 236.442 121.287 243.369C123.667 250.24 127.236 255.604 131.996 259.458C136.802 263.313 142.774 265.268 149.913 265.324Z" fill="#D4D4D4"/>
<path d="M310.299 279.486V158.816H370V176.33H324.927V210.352H361.601V227.95H324.927V279.486H310.299Z" fill="#D4D4D4"/>
<rect x="225.3" y="188.505" width="16.9974" height="20.3511" fill="#D4D4D4"/>
<rect x="242.298" y="208.856" width="16.9974" height="20.3511" fill="#D4D4D4"/>
<rect x="259.295" y="229.207" width="16.9974" height="20.3511" fill="#D4D4D4"/>
<rect x="276.292" y="158.577" width="16.9974" height="120.909" fill="#D4D4D4"/>
<rect x="208.303" y="158.577" width="16.9974" height="120.909" fill="#D4D4D4"/>
</svg>
